<svg xmlns="http://www.w3.org/2000/svg" viewBox="0 0 537.8 386.91"><defs><style>.cls-1{fill:#266d70;}.cls-2{fill:#5b3a1f;}</style></defs><title>Asset 4</title><g id="Layer_2" data-name="Layer 2"><g id="Layer_2-2" data-name="Layer 2"><g id="Layer_1-2" data-name="Layer 1"><path class="cls-1" d="M245.82,291.45q-11.41-28.33-22.74-56.72a2.3,2.3,0,0,0-2.52-1.71q-4.6.1-9.21,0a2.22,2.22,0,0,0-2.51,1.68c-1.35,3.7-2.84,7.34-4.27,11q-8.76,22.53-17.56,45c-.27.71-.35,1.85-1.26,1.88s-1-1.08-1.33-1.78c-1.55-3.81-3.06-7.64-4.59-11.46q-8.87-22-17.69-44.1c-.6-1.5-1.28-2.39-3.11-2.29-3,.16-6,.08-9,0a2.1,2.1,0,0,0-2.29,1.64c-1.93,5.12-4,10.21-6,15.31q-8.09,20.64-16.17,41.28c-.63,1.61-.88,2.48,1.44,2.33a86.38,86.38,0,0,1,9,0c1.43.06,1.95-.51,2.37-1.76,1.13-3.36,2.47-6.65,3.6-10a2.34,2.34,0,0,1,2.6-1.91c6.87.06,13.73.07,20.6,0a2.2,2.2,0,0,1,2.41,1.77c1.27,3.47,2.71,6.87,3.93,10.36a2,2,0,0,0,2.27,1.57q11.63-.07,23.25,0a2.14,2.14,0,0,0,2.43-1.71c1.1-3.27,2.45-6.46,3.52-9.74.53-1.63,1.28-2.29,3.07-2.26,6.62.11,13.25.1,19.87,0a2.6,2.6,0,0,1,3,2.14c.57,1.84,1.38,3.61,2.09,5.41s1,4.48,2.46,5.69,4.17.23,5.92.43c1.93,0,3.47-.11,5,0C246.29,293.75,246.49,293.12,245.82,291.45Zm-84.24-21.67c-4.52,0-9,0-13.54,0-1.22,0-1.38-.57-1-1.5q3.63-10,7.29-20.07l.72.1c2.51,6.76,5,13.52,7.54,20.26C163,269.73,162.42,269.78,161.58,269.78Zm61,0c-4.45-.06-8.89,0-13.33,0-.88,0-1.53-.18-1.16-1.2,2.44-6.75,4.92-13.49,7.53-20.63,1.55,2.29,2.07,4.47,2.86,6.51,1.73,4.5,3.36,9,5.05,13.54C223.9,269,224.28,269.83,222.57,269.8Z"/><path class="cls-1" d="M300.11,250.4c-2.63-9.48-10.08-16.46-21-17-8.56-.44-17.11,0-25.66-.34-2.05-.08-2.36.72-2.34,2.5.07,9.29,0,18.57,0,27.86s0,18.73,0,28.09c0,1.71.45,2.15,2.14,2.13,8.32-.09,16.65.18,25-.12,8.6-.31,15.6-3.84,19.72-11.79C303.16,271.62,303,261,300.11,250.4Zm-12.53,25.27c-1.54,4.88-4.89,7.41-10,7.63-4,.17-8.07,0-12.1.18-1.72.06-2.2-.54-2.17-2.22.09-6,0-11.94,0-17.9h0c0-6,0-11.94,0-17.9,0-1.3.14-2.19,1.74-2.22a84,84,0,0,1,13.27.64c5.43.73,8.62,4.33,9.78,9.41A42.11,42.11,0,0,1,287.58,275.67Z"/><path class="cls-1" d="M408.22,275.25C403,262.1,397.65,249,392.47,235.8c-.81-2.06-1.84-2.92-4.08-2.73a50.88,50.88,0,0,1-7.51,0c-1.85-.12-2.65.58-3.3,2.27-6.07,15.76-12.23,31.48-18.37,47.22-1.4,3.59-2.78,7.18-4.27,11,4,0,7.6-.08,11.22,0,1.43,0,1.93-.54,2.34-1.76,1.13-3.34,2.44-6.63,3.55-10a2.45,2.45,0,0,1,2.77-2c6.7.09,13.41.11,20.11,0a2.7,2.7,0,0,1,3,2.11c1.24,3.41,2.61,6.77,3.83,10.19.34,1,.71,1.43,1.82,1.41,3.87-.07,7.75,0,12.07,0C413.07,287.28,410.64,281.27,408.22,275.25Zm-17.1-5.36c-4.73-.08-9.47,0-14.5,0,2.66-7.36,5.24-14.48,7.91-21.84,1.41,1.55,1.69,3.25,2.27,4.78,1.92,5,3.73,10.08,5.63,15.1C393,269.3,392.86,269.92,391.12,269.89Z"/><path class="cls-1" d="M340.38,280.8c0,3.64-.05,7.27,0,10.91,0,1.42-.3,2-1.86,2-2.82-.13-5.66-.13-8.48,0-1.54.07-1.88-.48-1.87-1.92.07-7.11,0-14.22.05-21.32a6.7,6.7,0,0,0-1.11-3.85q-9.88-15.49-19.65-31.09c-.39-.63-1.33-1.28-.84-2.09.38-.61,1.34-.25,2-.25,3.15,0,6.3.07,9.45,0a3.23,3.23,0,0,1,3.28,1.86c3.91,6.68,7.91,13.3,11.89,19.94,1.34,2.23,1.37,2.22,2.64,0,3.87-6.61,7.79-13.19,11.56-19.85a3.36,3.36,0,0,1,3.44-2c3.14.11,6.3.11,9.45,0,1.92-.06,2.08.43,1.09,2-4.83,7.54-9.59,15.12-14.38,22.68-1.82,2.86-3.6,5.74-5.47,8.57a8.17,8.17,0,0,0-1.28,5C340.46,274.5,340.39,277.66,340.38,280.8Z"/><path class="cls-2" d="M269.66,373.76a26.28,26.28,0,0,0-2.44-3.3c-1-1.14-2.17-2.15-3.27-3.22-.44-.42-1.38-.54-1.24-1.31s1.07-.52,1.64-.69c6.08-1.84,9.37-5.59,9.59-11,.3-7.43-4.81-12.56-12.71-12.64-6.78-.07-13.57.07-20.35-.08-2.14,0-2.7.53-2.69,2.66.1,12.66,0,25.34.08,38,0,4.53-.64,3.81,4,4,1.56,0,2.13-.39,2.09-2-.11-3.63-.09-7.26,0-10.89,0-2.24-1-5.15.42-6.52s4.3-.24,6.53-.44c3.67-.32,6.33,1.29,8.52,4.07A62.74,62.74,0,0,1,266.87,381c2.25,4.52,5.34,6.3,10.49,4.7C274.78,381.71,272.24,377.72,269.66,373.76Zm-19.28-12.49c-6,0-6,0-6-6,0-2.26.09-4.53,0-6.78-.08-1.54.33-2.18,2-2.07,2.09.14,4.2,0,6.3,0a58.48,58.48,0,0,1,9.16.41c3.55.65,5.87,3,6.16,6.43a7,7,0,0,1-5.24,7.22C258.64,361.63,254.49,361.24,250.38,361.27Z"/><path class="cls-2" d="M170.26,355c-2.54-9-8.51-13.43-17.85-13.44-5.09,0-10.17.13-15.25-.07-2.33-.08-2.79.72-2.74,2.86.13,6.45,0,12.9,0,19.35,0,6.78,0,13.55,0,20.33,0,1.56.44,2.13,2.06,2.1,5.24-.08,10.49.08,15.73-.06,7.44-.21,13.51-2.93,16.7-10.12A30.2,30.2,0,0,0,170.26,355Zm-6,16.85c-1.78,6-5.32,8.61-12,8.89-3.38.15-6.78,0-10.16.09-1.56.06-1.92-.53-1.86-2,.11-2.49,0-5,0-7.5v-7.49c0-5.08.05-10.16,0-15.23,0-1.46.39-2,1.9-1.94,3.79.13,7.59-.08,11.36.21,6,.45,9.56,3.54,11,9.41A29,29,0,0,1,164.21,371.88Z"/><path class="cls-2" d="M367.41,355.47c-2-7.26-6.25-12.38-14.24-13.58-3.63-.54-7.25-.07-10.21-.31-3.56,0-6.47.09-9.37,0-1.56-.06-2,.36-2,2q.1,20.34,0,40.68c0,1.39.24,2,1.83,2,5.41-.11,10.82.05,16.23-.08,8.75-.21,14.67-4.62,17.3-12.8A30.59,30.59,0,0,0,367.41,355.47Zm-6.82,17.95c-2,5.63-6.77,7.15-12.15,7.36-3.06.13-6.13,0-9.2.08-1.58.06-1.86-.58-1.84-2,.07-5,0-10,0-15V348.63c0-.85-.26-1.84,1.21-1.76,4.5.24,9-.31,13.52.38s7.38,3.59,8.78,7.67A27.29,27.29,0,0,1,360.59,373.42Z"/><path class="cls-2" d="M107.91,340.84c-7.28-.68-13.58,1.4-18.29,7.1-5.1,6.16-6.1,13.43-4.76,21.12,1.9,10.81,10,17.69,20.77,17.73a21.18,21.18,0,0,0,9.34-2c7.08-3.38,10.52-9.22,11.72-16.79C128.65,355.65,122.3,342.18,107.91,340.84Zm11.48,31.7c-2.32,6.13-7.64,9.45-14.39,9.26a14.63,14.63,0,0,1-13.46-10,20.69,20.69,0,0,1-1-7.67,25.28,25.28,0,0,1,.87-7.6,14.2,14.2,0,0,1,13.11-10.66c7.13-.34,12.47,2.91,14.86,9.23A24,24,0,0,1,119.39,372.54Z"/><path class="cls-2" d="M78.06,358.06c-3.15-16.51-20.49-21.24-31.93-14.37-6.47,3.9-9.24,10-10,17.25-1.52,13.77,7.09,26.11,21.22,25.81,9.64.1,17.36-5.47,20.11-14.62A29.14,29.14,0,0,0,78.06,358.06Zm-6.71,13.71c-2.29,6.68-8,10.43-15.09,10A14.86,14.86,0,0,1,42.66,370a21.86,21.86,0,0,1-.5-5.63,31.75,31.75,0,0,1,.42-5.89C44,351,49.16,346.13,56.26,345.87c7.89-.3,13.5,3.77,15.48,11.39A24.84,24.84,0,0,1,71.35,371.77Z"/><path class="cls-2" d="M323.34,357.91c-1.49-7.61-5.68-13.26-13.23-15.88s-14.71-1.67-21.06,3.45c-5,4-7,9.49-7.6,15.62-1.39,13.59,6.94,25.88,21.17,25.67,6.82,0,12.62-2.32,16.76-7.93C324,372.53,324.79,365.33,323.34,357.91Zm-6.84,14.48a14.45,14.45,0,0,1-15.29,9.37A14.9,14.9,0,0,1,288,369.87a22.47,22.47,0,0,1-.47-5.91,23.82,23.82,0,0,1,.55-6.34,14.35,14.35,0,0,1,12.78-11.72c7-.67,12.7,2.46,15.38,8.82A23.35,23.35,0,0,1,316.5,372.39Z"/><path class="cls-2" d="M520.6,386.73a20.62,20.62,0,0,1-11.1-2.52c-4.23-2.42-6.33-6.23-7.16-10.89-.19-1.07.08-1.7,1.33-1.7a11.49,11.49,0,0,0,2.4-.29c1.32-.28,1.86.21,2.1,1.54,1,5.32,4.87,7.62,9.69,8.35a17.06,17.06,0,0,0,8.82-.66c3.45-1.33,5.2-3.4,5.22-6.44,0-3.22-1.39-5.18-5.14-6.39s-7.87-2.23-11.82-3.31a20.45,20.45,0,0,1-6-2.52,10.92,10.92,0,0,1-.31-18c6.38-4.53,17.24-4.25,23.3.67a12.27,12.27,0,0,1,4.27,7.6c.24,1.34-.12,2-1.68,2.17-2.4.3-4,.22-4.62-2.77-.45-2.4-2.38-3.91-4.76-4.71a16.76,16.76,0,0,0-11.35.18,6.1,6.1,0,0,0-4.08,5.75,5.13,5.13,0,0,0,4,5.12c4.7,1.4,9.47,2.56,14.18,3.94,4.19,1.24,7.67,3.49,9.21,7.81,2,5.67-.83,12.07-6.48,15A19.36,19.36,0,0,1,520.6,386.73Z"/><path class="cls-2" d="M376.64,357.63c0-4.68.05-9.36,0-14,0-1.51.31-2.08,2-2,3.9.08,3.9,0,3.9,4,0,7.1,0,14.2,0,21.3a42.53,42.53,0,0,0,.43,6.27c.7,4.58,3.35,7.5,7.94,8.14a21.86,21.86,0,0,0,6.51-.07c5.27-.9,7.67-3.86,8-9.57.57-8.87.13-17.74.28-26.61,0-1.09-.53-2.83.38-3.14a14,14,0,0,1,5-.18c.77,0,.54.87.54,1.39,0,9.2.3,18.41-.11,27.59-.37,8.45-3.54,13.89-12.41,15.71a24.38,24.38,0,0,1-13.34-.83c-5.48-2-8.89-7.31-9-14.11-.09-4.6,0-9.2,0-13.79Z"/><path class="cls-2" d="M229.42,348.53c-2.29-5.19-6.89-6.74-12-6.9-6.13-.19-12.27,0-18.4-.09-1.76,0-2.33.37-2.3,2.24.13,6.61.05,13.23.05,19.84h0c0,6.86,0,13.72,0,20.57,0,1.41.35,2.15,1.89,1.95a7,7,0,0,1,1.94,0c1.76.26,2.17-.52,2.14-2.17-.1-4.76,0-9.52-.07-14.28,0-1.48.4-1.94,1.91-1.91,4.27.09,8.56.15,12.82-.05,3.93-.19,7.74-1.06,10.3-4.43A13.8,13.8,0,0,0,229.42,348.53Zm-10.14,13.63c-5.15,1.25-10.44.45-15.66.61-.94,0-1-.66-1-1.33,0-4.43,0-8.86,0-13.29,0-1.16.55-1.31,1.47-1.3,2.26,0,4.51,0,6.77,0v.05c2.26,0,4.52-.1,6.77,0a6.87,6.87,0,0,1,6.86,6.2C225,358,223.34,361.18,219.28,362.16Z"/><path class="cls-2" d="M419.75,363.45c.08-8.56,2.54-16,10.67-20.16,7.64-3.88,15.33-3.86,22.4,1.65a16.82,16.82,0,0,1,5.08,7.49c.43,1.1.1,1.44-.92,1.63a15.09,15.09,0,0,0-2.57.64c-1.45.51-2.07,0-2.66-1.4-2.36-5.54-5.91-7.56-12.5-7.38a12.93,12.93,0,0,0-11.78,8.22,27.47,27.47,0,0,0-.1,19,13.15,13.15,0,0,0,12.93,8.69c5.8-.08,10.08-3.3,12.15-8.93.27-.74-.09-2.31,1.36-2.17a12.72,12.72,0,0,1,5,1.44c.12.06-.07.72-.15,1.08a17.72,17.72,0,0,1-16.25,13.49c-6.74.39-12.94-.74-17.42-6.33C421.1,375.46,419.72,369.66,419.75,363.45Z"/><path class="cls-2" d="M0,363.78c0-6.78,0-13.57,0-20.35,0-1.48.38-1.89,1.89-1.88,8.8.07,17.6.11,26.41,0,2.15,0,1.93,1.17,1.78,2.43s.94,3-1.75,3c-6.7-.13-13.41,0-20.11-.09-1.89,0-2.29.59-2.23,2.3.12,3.14.12,6.3,0,9.44,0,1.64.6,2,2.12,2,5.5-.08,11,.12,16.48-.09,2.62-.11,2,1.44,2.16,2.9.13,1.68-.08,2.6-2.24,2.53-5.49-.18-11,0-16.47-.1-1.61,0-2.09.51-2.07,2.08.08,5.33,0,10.66.08,16,0,1.83-.51,2.54-2.32,2.27a6.38,6.38,0,0,0-1.69,0c-1.56.19-2.08-.4-2.06-2C.09,377.34,0,370.56,0,363.78Z"/><path class="cls-2" d="M477.58,366.55c0-5.89-.05-11.78,0-17.67,0-1.56-.38-2.09-2-2-3.62.12-7.26,0-10.89.07-1.39,0-1.74-.41-1.75-1.76,0-3.57-.08-3.57,3.57-3.57,9.92,0,19.85.09,29.78-.06,2.42,0,2.08,1.25,2.07,2.7s.4,2.88-2.06,2.72c-3.46-.24-6.94.05-10.41-.11-2-.09-2.58.39-2.56,2.47.11,11.45,0,22.91.1,34.36,0,2-.5,2.76-2.53,2.5-1.62-.21-3.55.67-3.42-2.43C477.76,378,477.58,372.27,477.58,366.55Z"/><path class="cls-1" d="M318.32,65.4c3.58,10,5.43,19.48-.22,28.83-.45.75-.85,2-1.65,1.9-1-.14-1.44-1.34-1.86-2.32-2-4.8-1.27-9.68-.29-14.51A110.1,110.1,0,0,1,318.32,65.4Z"/><path class="cls-1" d="M327.14,118.48c.78,10.23.36,19.93-7.79,27.46-.51.47-1,1.36-1.71,1.16s-.8-1.3-1-2a16.09,16.09,0,0,1,.68-8.8C318.94,131.11,324.27,121.45,327.14,118.48Z"/><path class="cls-1" d="M309.63,137.82c0,10.44-2.22,19.89-11.26,26.44-1.1.79-1.76,1.14-2.23-.71a10.59,10.59,0,0,1,.35-5.9C299,149.81,304.47,143.93,309.63,137.82Z"/><path class="cls-1" d="M294.54,147.83c-.84,10.14-4,18.07-13.44,22.06-2.46,1-2.72.9-3-1.71a10.57,10.57,0,0,1,2.26-7.2C284,155.76,289.15,152.13,294.54,147.83Z"/><path class="cls-1" d="M327.08,41.37c5,9.71,7.94,19,3.2,29.09-.88,1.87-1.54,1.71-2.58.26a15.9,15.9,0,0,1-2.85-8.33C324.38,55.48,325.48,48.74,327.08,41.37Z"/><path class="cls-1" d="M307.85,81.45c4,9.74,2.2,19.34-4.42,25.59-1.34,1.26-1.94,1.13-2.81-.42-1.58-2.8-1.45-5.7-.71-8.61C301.41,92.09,304.7,87,307.85,81.45Z"/><path class="cls-1" d="M349.1,146.75a12.16,12.16,0,0,1-6.67,5.38c-5.2,2-10.72,2.17-16.17,2.7-1.58.15-1.5-.57-1-1.73,2.68-6.1,7.73-8.87,14.4-7.82Z"/><path class="cls-1" d="M358.15,59.9a10.9,10.9,0,0,1-3.61,6.94c-4.53,4.37-10.2,6.88-15.82,9.61-.87-5.51,2.08-11.37,7-13.43C349.6,61.36,353.87,60.94,358.15,59.9Z"/><path class="cls-1" d="M347.17,80.6c-4,9.27-13.16,11-21.07,14.87a12.1,12.1,0,0,1,8-12.67C338.3,81.38,342.72,81.15,347.17,80.6Z"/><path class="cls-1" d="M306.34,167.44a11.86,11.86,0,0,1,12.74-8.4c3.65.53,7.23,1.53,10.85,2.26,1.55.31,1.19.9.38,1.68a13.77,13.77,0,0,1-5.83,3.26C320.28,167.5,311,168.13,306.34,167.44Z"/><path class="cls-1" d="M364.15,108.18c.32-4.05,2.53-7.09,5.57-9.46a74.86,74.86,0,0,1,7.36-4.58c1.44-.88,1.65,0,1.53,1.15-.38,3.69-2.27,6.66-4.62,9.35-1.7,1.94-3.5,3.79-5.35,5.57-.66.63-1.11,2.12-2.45,1.31C365,110.8,364,109.83,364.15,108.18Z"/><path class="cls-1" d="M330.32,100.05c-4.5,4.38-8.17,9.17-13.56,12a7.48,7.48,0,0,1-6,.76c-1.54-.5-1.66-1.26-.81-2.47a23.65,23.65,0,0,1,15.08-10C326.61,100,328.24,99.47,330.32,100.05Z"/><path class="cls-1" d="M307.73,173.49c-5.74,2.65-11.13,6.21-17.75,6.24a6,6,0,0,1-1.2,0c-1.79-.33-3.89-.88-4.31-2.62-.37-1.53,1.8-2,3-2.65C294,171.05,300.75,170.5,307.73,173.49Z"/><path class="cls-1" d="M357,125.83c-1.73.18-2.06-.29-2-1.35a9.38,9.38,0,0,1,7.86-8.62c2.78-.43,5.61-.57,8.42-.76,1.3-.09,2,.28,1.24,1.82a12.27,12.27,0,0,1-3.26,4.14A22.75,22.75,0,0,1,357,125.83Z"/><path class="cls-1" d="M354.92,34.12a9.22,9.22,0,0,1,5-8.31c2.22-1.27,4.62-2.23,6.88-3.45,2.07-1.13,2.18.11,2,1.57a15.06,15.06,0,0,1-4.27,8.45,26.35,26.35,0,0,1-6.91,5.21c-1.52.83-2.17.43-2.37-1.18C355.19,35.54,355,34.67,354.92,34.12Z"/><path class="cls-1" d="M367,4.44c-.38,5.93-2.76,10.79-4.92,15.71-.49,1.11-1.63.77-2.52.24a4.89,4.89,0,0,1-2.22-4.33,15.17,15.17,0,0,1,2.45-9c1.38-2.17,3.12-4.11,4.62-6.21,1.1-1.54,1.6-.83,1.94.43S366.84,3.66,367,4.44Z"/><path class="cls-1" d="M340,139.36c1.06-4.94,5.2-8.52,10-8.28a102.76,102.76,0,0,1,10.2,1.52C354.45,139.2,347,138.45,340,139.36Z"/><path class="cls-2" d="M244,111.69c-5.72,4.28-10.7,8.89-17.69,10.07-1.44.25-3.44.6-4.09-.52s1.1-2.26,2-3.21c3.66-3.92,8.5-5.35,13.59-6.09A15.63,15.63,0,0,1,244,111.69Z"/><path class="cls-2" d="M190.68,141.47a68.81,68.81,0,0,1-7.68,13,14,14,0,0,1-6.5,4.82c-1.65.57-2.26.2-1.78-1.61a20.11,20.11,0,0,1,6.39-10.28A33.27,33.27,0,0,1,190.68,141.47Z"/><path class="cls-1" d="M346.66,54.73c.3-5.47,3.35-9.07,8.52-10.24,2.05-.47,4.09-.91,6.12-1.41,1.68-.41,1.82.35,1.24,1.59A14.47,14.47,0,0,1,358,50.2a71.82,71.82,0,0,1-9.64,5.51C346.8,56.51,346.44,56,346.66,54.73Z"/><path class="cls-2" d="M181,138.9c2.63-9,9.56-12.83,17.66-15.51C195.72,131.11,186.68,139.18,181,138.9Z"/><path class="cls-2" d="M187.6,156.08A61.22,61.22,0,0,1,183.16,169a9.52,9.52,0,0,1-5.39,4.93c-1.29.46-1.8.31-1.85-1.26a15.24,15.24,0,0,1,5.7-12.73A22.62,22.62,0,0,1,187.6,156.08Z"/><path class="cls-2" d="M235.3,123.48a64.23,64.23,0,0,1-8.64,9.32,10.26,10.26,0,0,1-7.51,2.75c-1.35-.08-2-.62-1.28-2.15a14.88,14.88,0,0,1,9-8.49A22.84,22.84,0,0,1,235.3,123.48Z"/><path class="cls-2" d="M258.51,98.81c-5.88,3.49-11.45,7.7-18.74,7.75-1.32,0-3,0-3.5-1s1.16-1.87,2-2.62A19.29,19.29,0,0,1,249,98.46,32.54,32.54,0,0,1,258.51,98.81Z"/><path class="cls-2" d="M173.35,136.33c-2-6.75-5-13-1.74-20.48,2.11,3.56,4.57,6.27,5.55,9.77C178.33,129.8,176.57,133.12,173.35,136.33Z"/><path class="cls-2" d="M166.23,133.11c2.51,3.9,5.55,6.69,6.7,10.64,1,3.54,0,6.63-3.18,9.86C167.18,147.15,163.68,141.05,166.23,133.11Z"/><path class="cls-2" d="M236,81.39c.53,2.77,1.13,5.27,1.47,7.8.68,5.06-2.14,8.41-6.5,10.38-.56.25-1.23.35-1.15-.55.46-5.58.34-11.32,4.1-16.06a6.57,6.57,0,0,1,1-1A8.32,8.32,0,0,1,236,81.39Z"/><path class="cls-2" d="M219.62,113.93c0-5.25-.42-10.32,1.48-15.17.58-1.47,1.21-3.5,2.82-3.51,1,0,.92,2.3,1.27,3.58s.61,2.66.92,4C227.27,107.78,224.88,112.05,219.62,113.93Z"/><path class="cls-1" d="M338.08,29.58c4.2,5.1,5.26,14.68,2.45,20.14-.72,1.39-1.18,1.19-2,.19a10,10,0,0,1-2-5.81A49.38,49.38,0,0,1,338.08,29.58Z"/><path class="cls-1" d="M341.84,111.29c.84,7,.36,13.67-5,19-.48.47-.92,1.39-1.66,1.1s-.6-1.23-.76-1.94a9,9,0,0,1,.13-4.29C335.84,119.94,338.77,115.59,341.84,111.29Z"/><path class="cls-1" d="M349.86,121.5c.24-9.73,6.29-15.88,11-22.66C359.72,107.36,357.47,115.35,349.86,121.5Z"/><path class="cls-1" d="M284.86,185.82c-4.47,1.16-8.54,2.7-12.94,2.53a8.33,8.33,0,0,1-5.13-1.75c-1.22-1-1.08-1.7.22-2.48a14.18,14.18,0,0,1,13.13-.93A14.8,14.8,0,0,1,284.86,185.82Z"/><path class="cls-1" d="M349.57,35.42c-3.33-8.32-.21-16.21,1.72-24.18C353.47,19.46,354.19,27.6,349.57,35.42Z"/><path class="cls-1" d="M313.16,119.83c-4.26,3.53-8,6.73-13.08,7.86a5.3,5.3,0,0,1-1,.14c-1.32,0-2.93,0-3.54-1.09s.81-2.07,1.56-2.91c3.22-3.58,7.47-4.5,12-4.44C310.3,119.41,311.42,119.63,313.16,119.83Z"/><path class="cls-2" d="M214.85,112.12c2.45,6.35,2.06,11.87-1.22,17.14-1.17,1.88-1.72,1.83-2.92-.13a6.89,6.89,0,0,1-.54-5.36C211.05,119.85,213,116.35,214.85,112.12Z"/><path class="cls-2" d="M267.24,70.2a2.81,2.81,0,0,1-2.9-1.54c-.55-1.14.6-1.51,1.18-2.08A34.2,34.2,0,0,1,271,61.83,22,22,0,0,1,274.35,60c1.17-.51,2.85-1.23,3.62-.38s-.7,2-1.25,3c-1.47,2.72-3.29,5.15-6.17,6.58A6.94,6.94,0,0,1,267.24,70.2Z"/><path class="cls-2" d="M261.23,65.23c-.15,2-.23,3.82-.44,5.66A7.11,7.11,0,0,1,254,77c-.68,0-1.23.07-1.36-.88-.46-3.38,3.38-10.65,6.47-12.11C260.46,63.39,261.73,63,261.23,65.23Z"/><path class="cls-2" d="M201.73,78.08c-.41,4.53-.52,8.93-3.69,12.49a7.52,7.52,0,0,1-2.64,2,2.47,2.47,0,0,1-2.71-.41c-.8-.69-.23-1.48.05-2.2a35.27,35.27,0,0,1,4-8.2C197.91,80.09,199.25,78.5,201.73,78.08Z"/><path class="cls-2" d="M187.46,89.27c.84,2.48,1.76,4.79,2.42,7.18a7.37,7.37,0,0,1-3.48,8.27c-.62.35-1.19.73-1.57-.15C183.11,100.6,183,91.57,187.46,89.27Z"/><path class="cls-2" d="M164.9,153.8c4.77,5,6.42,10.44,5.57,16.68-.28,2.12-1.28,2-2.64.9A8.3,8.3,0,0,1,165,165C164.76,161.48,164.9,157.94,164.9,153.8Z"/><path class="cls-1" d="M294.12,104.28c1.77,6.18,2,11.56-2.6,16.22-1.38,1.4-1.92.8-2.46-.6a8.63,8.63,0,0,1,.28-6.34A67.43,67.43,0,0,1,294.12,104.28Z"/><path class="cls-1" d="M273,164.17c-.71,6.41-2.61,11.27-8.22,13.93-1.74.82-2.27.3-2.17-1.48a8.38,8.38,0,0,1,2-5.05C267,168.86,269.76,166.75,273,164.17Z"/><path class="cls-2" d="M247,73.22c2.62,7.68,2.48,13.19-5,15.12C242.7,83,242.21,77.32,247,73.22Z"/><path class="cls-2" d="M178.66,104.07a33.11,33.11,0,0,1,4.21,6.79,8.13,8.13,0,0,1-1.82,8.7c-.34.32-.82,1.18-1.19.12-1.67-4.76-3.55-9.51-1.81-14.69A5.15,5.15,0,0,1,178.66,104.07Z"/><path class="cls-1" d="M297.31,131.29c-3.36,3-6.16,5.53-9.51,7.35a11.07,11.07,0,0,1-4.08,1.33c-.81.09-1.82.15-2.23-.56s.43-1.41.89-2C286,132.78,291,131.43,297.31,131.29Z"/><path class="cls-1" d="M257.34,172.67c-1.61,6.18-4.38,10.7-10,13-.58.24-1.26.68-1.76.19s-.22-1.2,0-1.82a11.12,11.12,0,0,1,3-4.84A53.77,53.77,0,0,1,257.34,172.67Z"/><path class="cls-1" d="M266,190.49c-4.62,1.34-8.41,3.09-12.65,3.24a12.47,12.47,0,0,1-1.93-.08c-1.23-.12-2.77-.48-3.07-1.54-.34-1.25,1.33-1.6,2.25-2.07C255.52,187.52,260.42,188.22,266,190.49Z"/><path class="cls-1" d="M282.38,118.42c1.68,5.29-.26,12.2-4.18,15.58-1.19,1-1.77.78-2-.71-.52-2.88.68-5.4,1.88-7.81S280.86,120.86,282.38,118.42Z"/><path class="cls-2" d="M256.47,81.12c3.83-4.75,8.29-6.76,17.65-8.09C268.92,76.72,263.91,80.85,256.47,81.12Z"/><path class="cls-2" d="M248.35,92.42c3.2-4.4,9-6.16,16.35-4.92C259.36,90.43,254.83,94,248.35,92.42Z"/><path class="cls-2" d="M200.1,110.18c-2.46,3.23-4.16,6.24-6.77,8.53a16.33,16.33,0,0,1-3.19,2.14c-.82.42-1.95,1.15-2.68.45s.19-1.78.59-2.56C190.46,114,194.71,111.86,200.1,110.18Z"/><path class="cls-2" d="M202,93.67c-3,5.31-5.57,11.07-12.11,14.07C191.84,100.81,196.4,96.79,202,93.67Z"/><path class="cls-2" d="M163.24,174.42c3.83,2.75,6.24,5.75,6.77,9.93.16,1.31.32,3.22-.83,3.68s-2.46-1-3.17-2.13C163.93,182.53,163.71,178.7,163.24,174.42Z"/><path class="cls-2" d="M205.21,130.11c2.85,4.54,4.09,8.78,1.54,13.5-.82,1.52-1.49,1.38-2.39.17a7.15,7.15,0,0,1-1.14-5.3A39,39,0,0,1,205.21,130.11Z"/><path class="cls-2" d="M182.21,176.9a25.85,25.85,0,0,1-2.94,8.36,6.12,6.12,0,0,1-2.3,2.41c-1.19.65-2,.82-2-1.09C175,182.55,177.77,178.68,182.21,176.9Z"/><path class="cls-2" d="M222.52,139.55c-2.82,3.26-4.81,6.72-9,7.75-.78.19-1.83.38-2.29-.2s.26-1.44.63-2.09C214.11,141.06,217.9,140.08,222.52,139.55Z"/><path class="cls-2" d="M181,190.62a30.46,30.46,0,0,1-2.6,9.24,8.15,8.15,0,0,1-1.22,1.76c-.52.61-1.28,1.46-1.94,1.17-.92-.41-.49-1.51-.41-2.38C175.22,196.3,177.45,193.36,181,190.62Z"/><path class="cls-2" d="M215.86,151.62c-2.15,3-4,5.72-6.73,7.68-1.11.79-2.68,1.8-3.7.86-.74-.67.52-2.13,1.16-3.09C208.68,153.93,211.88,152.59,215.86,151.62Z"/><path class="cls-2" d="M201.45,144.71c2.06,4.49,2.45,8.59-.07,12.7-.69,1.13-1.11,1.11-1.77,0-1.2-2.13-.54-4.27-.09-6.36S200.73,147,201.45,144.71Z"/><path class="cls-2" d="M165.85,190c3.26,3.16,5,6.66,4.78,11,0,.71,0,1.64-.75,1.86s-1.27-.59-1.7-1.14c-1.88-2.41-1.85-5.39-2.31-8.21A24.16,24.16,0,0,1,165.85,190Z"/></g></g></g></svg>